<?xml version="1.0" encoding="UTF-8"?>
<svg width="22px" height="22px" viewBox="0 0 22 22" version="1.1" xmlns="http://www.w3.org/2000/svg" xmlns:xlink="http://www.w3.org/1999/xlink">
    <!-- Generator: sketchtool 57.1 (101010) - https://sketch.com -->
    <title>5ABAC7D1-3352-43C9-ABE5-272B8DB575E5-color</title>
    <desc>Created with sketchtool.</desc>
    <g id="Ecommerce" stroke="none" stroke-width="1" fill="none" fill-rule="evenodd">
        <g id="homepage_v01" transform="translate(-1025.000000, -2817.000000)" fill="#FFFFFF">
            <g id="Footer-Navigation-/-Footer-/-Desktop-/-Standard" transform="translate(0.000000, 2363.000000)">
                <g id="Middle" transform="translate(180.000000, 196.000000)">
                    <g id="4" transform="translate(845.000000, 96.000000)">
                        <g id="Social-Media" transform="translate(0.000000, 161.000000)">
                            <path d="M11.7509128,23 L1.21423111,23 C0.543433301,23 0,22.4562295 0,21.7856929 L0,2.21422169 C0,1.54351445 0.543518666,1 1.21423111,1 L20.7858543,1 C21.456396,1 22,1.54351445 22,2.21422169 L22,21.7856929 C22,22.4563148 21.4563106,23 20.7858543,23 L15.1796816,23 L15.1796816,14.4803876 L18.0393222,14.4803876 L18.4675128,11.1601434 L15.1796816,11.1601434 L15.1796816,9.04037731 C15.1796816,8.07909002 15.4466178,7.42400444 16.8250911,7.42400444 L18.5832677,7.42323616 L18.5832677,4.45358317 C18.2791977,4.41312049 17.2355258,4.32271971 16.0212947,4.32271971 C13.4863823,4.32271971 11.7509128,5.87003287 11.7509128,8.71155406 L11.7509128,11.1601434 L8.88393082,11.1601434 L8.88393082,14.4803876 L11.7509128,14.4803876 L11.7509128,23 L11.7509128,23 Z" id="Facebook"></path>
                        </g>
                    </g>
                </g>
            </g>
        </g>
    </g>
</svg>