<?xml version="1.0" encoding="UTF-8"?>
<svg width="24px" height="24px" viewBox="0 0 24 24" version="1.1" xmlns="http://www.w3.org/2000/svg" xmlns:xlink="http://www.w3.org/1999/xlink">
    <!-- Generator: sketchtool 57.1 (101010) - https://sketch.com -->
    <title>2FA36E24-1F04-4EF8-914E-B8FFB874620B-color</title>
    <desc>Created with sketchtool.</desc>
    <g id="Ecommerce" stroke="none" stroke-width="1" fill="none" fill-rule="evenodd">
        <g id="homepage_v01" transform="translate(-1071.000000, -2816.000000)" fill="#FFFFFF">
            <g id="Footer-Navigation-/-Footer-/-Desktop-/-Standard" transform="translate(0.000000, 2363.000000)">
                <g id="Middle" transform="translate(180.000000, 196.000000)">
                    <g id="4" transform="translate(845.000000, 96.000000)">
                        <g id="Social-Media" transform="translate(0.000000, 161.000000)">
                            <path d="M59.1604201,0.000809680479 C61.3834677,0.00447633281 61.8383141,0.0216004652 62.9475847,0.0722132578 C64.2248447,0.130469732 65.0971676,0.333343257 65.860456,0.630008276 C66.6495621,0.936628817 67.3187732,1.34694874 67.985936,2.01406396 C68.6530513,2.68122682 69.0633712,3.35043794 69.3700394,4.13954402 C69.6666567,4.90283244 69.8695303,5.77515526 69.9277867,7.05241535 C69.9861861,8.33234294 70,8.74099567 70,12.0000238 C70,15.2590043 69.9861861,15.6676571 69.9277867,16.9475847 C69.8695303,18.2248447 69.6666567,19.0971676 69.3700394,19.860456 C69.0633712,20.6495621 68.6530513,21.3187732 67.985936,21.985936 C67.3187732,22.6530513 66.6495621,23.0633712 65.860456,23.3700394 C65.0971676,23.6666567 64.2248447,23.8695303 62.9475847,23.9277867 C61.6676571,23.9861861 61.2590043,24 58.0000238,24 C54.7409957,24 54.3323429,23.9861861 53.0524153,23.9277867 C51.7751553,23.8695303 50.9028324,23.6666567 50.139544,23.3700394 C49.3504379,23.0633712 48.6812268,22.6530513 48.014064,21.985936 C47.3469487,21.3187732 46.9366288,20.6495621 46.6300083,19.860456 C46.3333433,19.0971676 46.1304697,18.2248447 46.0722133,16.9475847 C46.0216005,15.8383141 46.0044763,15.3834677 46.0008097,13.1604201 L46.0008097,10.8396109 C46.0044763,8.61653228 46.0216005,8.16168593 46.0722133,7.05241535 C46.1304697,5.77515526 46.3333433,4.90283244 46.6300083,4.13954402 C46.9366288,3.35043794 47.3469487,2.68122682 48.014064,2.01406396 C48.6812268,1.34694874 49.3504379,0.936628817 50.139544,0.630008276 C50.9028324,0.333343257 51.7751553,0.130469732 53.0524153,0.0722132578 C54.1112645,0.0239010467 54.5738305,0.00610226357 56.5471964,0.00139497387 L56.8396109,0.000809680479 L59.1604201,0.000809680479 Z M59.1398181,2.16289002 L56.8602129,2.16289002 C54.6789096,2.16623154 54.2476083,2.18209792 53.1509702,2.23213276 C51.9809821,2.28548292 51.3455912,2.48097316 50.9227435,2.64531072 C50.3626144,2.86299845 49.9628692,3.12303286 49.5429749,3.54297487 C49.1230329,3.96286924 48.8629984,4.3626144 48.6453107,4.92274348 C48.4809732,5.34559117 48.2854829,5.9809821 48.2321328,7.15097025 C48.1820979,8.24760827 48.1662315,8.67890963 48.16289,10.8602129 L48.16289,13.1398181 C48.1662315,15.3210904 48.1820979,15.7523917 48.2321328,16.8490298 C48.2854829,18.0190179 48.4809732,18.6544088 48.6453107,19.0772565 C48.8629984,19.6373856 49.1230805,20.0371308 49.5429749,20.4570251 C49.9628692,20.8769671 50.3626144,21.1370016 50.9227435,21.3546893 C51.3455912,21.5190268 51.9809821,21.7145171 53.1509702,21.7678672 C54.2474844,21.8179021 54.6786977,21.8337685 56.8601348,21.83711 L59.1398985,21.83711 C61.3213133,21.8337685 61.7525569,21.8179021 62.8490298,21.7678672 C64.0190179,21.7145171 64.6544088,21.5190268 65.0772565,21.3546893 C65.6373856,21.1370016 66.0371308,20.8769671 66.4570251,20.4570251 C66.8769671,20.0371308 67.1370016,19.6373856 67.3546893,19.0772565 C67.5190268,18.6544088 67.7145171,18.0190179 67.7678672,16.8490298 C67.8179021,15.7523917 67.8337685,15.3210904 67.83711,13.1398181 L67.83711,10.8602129 C67.8337685,8.67890963 67.8179021,8.24760827 67.7678672,7.15097025 C67.7145171,5.9809821 67.5190268,5.34559117 67.3546893,4.92274348 C67.1370016,4.3626144 66.8769671,3.96286924 66.4570251,3.54297487 C66.0371308,3.12303286 65.6373856,2.86299845 65.0772565,2.64531072 C64.6544088,2.48097316 64.0190179,2.28548292 62.8490298,2.23213276 C61.7523917,2.18209792 61.3210904,2.16623154 59.1398181,2.16289002 Z M58.0000238,5.8378417 C61.4032879,5.8378417 64.1621583,8.59671206 64.1621583,12.0000238 C64.1621583,15.4032879 61.4032879,18.1621583 58.0000238,18.1621583 C54.5967121,18.1621583 51.8378417,15.4032879 51.8378417,12.0000238 C51.8378417,8.59671206 54.5967121,5.8378417 58.0000238,5.8378417 Z M58.0000238,8 C55.7908507,8 54,9.79085069 54,12.0000238 C54,14.2091493 55.7908507,16 58.0000238,16 C60.2091493,16 62,14.2091493 62,12.0000238 C62,9.79085069 60.2091493,8 58.0000238,8 Z M64.4056161,4.15435822 C65.2009146,4.15435822 65.8456418,4.79908543 65.8456418,5.59438394 C65.8456418,6.38968246 65.2009146,7.03436203 64.4056161,7.03436203 C63.6103652,7.03436203 62.965638,6.38968246 62.965638,5.59438394 C62.965638,4.79908543 63.6103652,4.15435822 64.4056161,4.15435822 Z" id="Instagram"></path>
                        </g>
                    </g>
                </g>
            </g>
        </g>
    </g>
</svg>